<svg preserveAspectRatio="none" overflow="visible" style="display: block;" width="15.9985" height="15.9985" viewBox="0 0 15.9985 15.9985" fill="none" xmlns="http://www.w3.org/2000/svg">
<g id="Icon" clip-path="url(#clip0_0_7)">
<path id="Vector" d="M6.62405 10.3324C6.56453 10.1017 6.44429 9.89114 6.27582 9.72268C6.10736 9.55421 5.89683 9.43397 5.66614 9.37445L1.57652 8.31989C1.50675 8.30008 1.44534 8.25806 1.40161 8.20019C1.35788 8.14233 1.33422 8.07178 1.33422 7.99925C1.33422 7.92672 1.35788 7.85617 1.40161 7.79831C1.44534 7.74044 1.50675 7.69842 1.57652 7.67861L5.66614 6.62338C5.89675 6.56392 6.10722 6.44378 6.27568 6.27544C6.44414 6.1071 6.56443 5.89671 6.62405 5.66614L7.67861 1.57652C7.69822 1.50647 7.7402 1.44476 7.79815 1.4008C7.8561 1.35684 7.92684 1.33304 7.99958 1.33304C8.07232 1.33304 8.14306 1.35684 8.20102 1.4008C8.25897 1.44476 8.30095 1.50647 8.32055 1.57652L9.37445 5.66614C9.43397 5.89683 9.55421 6.10736 9.72268 6.27582C9.89114 6.44429 10.1017 6.56453 10.3324 6.62405L14.422 7.67795C14.4923 7.69734 14.5543 7.73928 14.5985 7.79732C14.6427 7.85536 14.6667 7.9263 14.6667 7.99925C14.6667 8.0722 14.6427 8.14314 14.5985 8.20118C14.5543 8.25922 14.4923 8.30116 14.422 8.32055L10.3324 9.37445C10.1017 9.43397 9.89114 9.55421 9.72268 9.72268C9.55421 9.89114 9.43397 10.1017 9.37445 10.3324L8.31989 14.422C8.30028 14.492 8.2583 14.5537 8.20035 14.5977C8.1424 14.6417 8.07166 14.6655 7.99892 14.6655C7.92618 14.6655 7.85543 14.6417 7.79748 14.5977C7.73953 14.5537 7.69755 14.492 7.67795 14.422L6.62405 10.3324Z" stroke="#94A3B8" stroke-width="1.33321" stroke-linecap="round" stroke-linejoin="round"/>
<path id="Vector_2" d="M13.3321 1.99981V4.66623" stroke="#94A3B8" stroke-width="1.33321" stroke-linecap="round" stroke-linejoin="round"/>
<path id="Vector_3" d="M14.6653 3.33302H11.9989" stroke="#94A3B8" stroke-width="1.33321" stroke-linecap="round" stroke-linejoin="round"/>
<path id="Vector_4" d="M2.66642 11.3323V12.6655" stroke="#94A3B8" stroke-width="1.33321" stroke-linecap="round" stroke-linejoin="round"/>
<path id="Vector_5" d="M3.33302 11.9989H1.99981" stroke="#94A3B8" stroke-width="1.33321" stroke-linecap="round" stroke-linejoin="round"/>
</g>
<defs>
<clipPath id="clip0_0_7">
<rect width="15.9985" height="15.9985" fill="white"/>
</clipPath>
</defs>
</svg>
