<svg preserveAspectRatio="none" overflow="visible" style="display: block;" width="12.984" height="12.984" viewBox="0 0 12.984 12.984" fill="none" xmlns="http://www.w3.org/2000/svg">
<g id="Icon" clip-path="url(#clip0_0_4)">
<path id="Vector" d="M11.7559 9.738L7.42793 2.164C7.33356 1.99748 7.19671 1.85898 7.03134 1.76262C6.86596 1.66625 6.67799 1.61548 6.48659 1.61548C6.29519 1.61548 6.10722 1.66625 5.94184 1.76262C5.77647 1.85898 5.63962 1.99748 5.54525 2.164L1.21725 9.738C1.12186 9.9032 1.07184 10.0907 1.07227 10.2814C1.07269 10.4722 1.12354 10.6595 1.21966 10.8242C1.31577 10.989 1.45375 11.1254 1.61959 11.2197C1.78543 11.314 1.97325 11.3627 2.164 11.361H10.82C11.0098 11.3608 11.1963 11.3107 11.3606 11.2156C11.5249 11.1206 11.6614 10.984 11.7562 10.8195C11.851 10.6551 11.9009 10.4686 11.9009 10.2787C11.9008 10.0889 11.8508 9.9024 11.7559 9.738Z" stroke="#BE185D" stroke-width="1.082" stroke-linecap="round" stroke-linejoin="round"/>
<path id="Vector_2" d="M6.492 4.869V7.033" stroke="#BE185D" stroke-width="1.082" stroke-linecap="round" stroke-linejoin="round"/>
<path id="Vector_3" d="M6.492 9.197H6.49741" stroke="#BE185D" stroke-width="1.082" stroke-linecap="round" stroke-linejoin="round"/>
</g>
<defs>
<clipPath id="clip0_0_4">
<rect width="12.984" height="12.984" fill="white"/>
</clipPath>
</defs>
</svg>
