<svg preserveAspectRatio="none" overflow="visible" style="display: block;" width="644.421" height="641.336" viewBox="0 0 644.421 641.336" fill="none" xmlns="http://www.w3.org/2000/svg">
<g id="&#235;&#175;&#184;&#235;&#158;&#152;&#235;&#161;&#156;-&#235;&#161;&#156;&#234;&#179;&#160;">
<g id="&#236;&#155;&#144;&#237;&#152;&#149;-&#236;&#149;&#132;&#236;&#185;&#152;">
<path id="Vector" d="M66.4394 484.758C40.0757 439.303 23.7121 402.258 17.3485 373.621C10.9848 344.076 9.16665 313.394 11.8939 281.576C14.6212 249.758 20.0757 223.167 28.2576 201.803C36.4394 180.439 48.7121 158.621 65.0757 136.349C81.4394 114.076 101.439 93.8485 125.076 75.6667C148.712 57.4849 175.303 42.7122 204.848 31.3485C234.394 19.9849 264.167 13.394 294.167 11.5758C324.167 9.75762 349.848 10.6667 371.212 14.3031C392.576 17.9394 416.212 25.6667 442.121 37.4849C468.03 49.3031 492.121 64.7576 514.394 83.8485C536.667 102.939 554.848 122.258 568.939 141.803C583.03 161.349 595.758 184.758 607.121 212.03C618.485 239.303 626.212 267.03 630.303 295.212C634.394 323.394 634.848 351.121 631.667 378.394C628.485 405.667 621.894 430.894 611.894 454.076C601.894 477.258 596.894 488.849 596.894 488.849" stroke="white" stroke-width="21.3333" stroke-linecap="round" stroke-linejoin="round"/>
</g>
<g id="&#235;&#161;&#156;&#235;&#147;&#156;&#235;&#167;&#181;-&#234;&#184;&#184;">
<path id="&#236;&#153;&#188;&#236;&#170;&#189;-&#234;&#184;&#184;" d="M318.712 255.667C246.894 286.576 207.121 305.212 199.394 311.576C191.667 317.939 186.894 323.849 185.076 329.303C183.258 334.758 183.03 339.758 184.394 344.303C185.758 348.849 190.076 354.076 197.348 359.985C204.621 365.894 226.667 375.439 263.485 388.621C300.303 401.803 322.803 410.894 330.985 415.894C339.167 420.894 345.303 425.667 349.394 430.212C353.485 434.758 355.985 438.621 356.894 441.803C357.803 444.985 357.576 450.212 356.212 457.485C354.848 464.758 350.076 471.576 341.894 477.939C333.712 484.303 319.848 491.576 300.303 499.758C280.758 507.939 254.167 517.485 220.53 528.394C186.894 539.303 145.53 551.121 96.4394 563.849C47.3485 576.576 22.803 582.939 22.803 582.939" stroke="white" stroke-width="21.3333" stroke-linecap="round" stroke-linejoin="round"/>
<path id="&#236;&#152;&#164;&#235;&#165;&#184;&#236;&#170;&#189;-&#234;&#184;&#184;" d="M254.621 337.485C347.349 365.667 402.121 383.394 418.939 390.667C435.758 397.939 448.712 404.53 457.803 410.439C466.894 416.349 475.303 423.167 483.03 430.894C490.758 438.621 497.121 448.167 502.121 459.53C507.121 470.894 510.076 479.985 510.985 486.803C511.894 493.621 511.439 501.121 509.621 509.303C507.803 517.485 501.894 528.394 491.894 542.03C481.894 555.667 466.439 569.076 445.53 582.258C424.621 595.439 399.621 606.803 370.53 616.349C341.439 625.894 326.894 630.667 326.894 630.667" stroke="white" stroke-width="21.3333" stroke-linecap="round" stroke-linejoin="round"/>
</g>
<path id="&#235;&#176;&#152;&#236;&#167;&#157;&#236;&#158;&#132;" d="M354.195 87.8921C356.315 108.595 360.033 125.397 370.488 138.862C381.585 153.153 400.203 163.606 432.288 171.084C401.597 177.16 383.655 184.941 372.727 197.046C362.175 208.734 358.232 224.377 355.53 246.121C352.826 224.414 348.864 209.087 337.983 197.718C326.742 185.974 308.196 178.535 276.334 172.483C308.227 166.324 326.775 156.868 337.845 142.612C348.395 129.024 352.084 111.155 354.195 87.8921Z" fill="white" stroke="white" stroke-width="0.969697"/>
</g>
</svg>
