<svg width="16" height="16" viewBox="0 0 16 16" fill="none" xmlns="http://www.w3.org/2000/svg">
<path d="M2.66503 9.33377C2.53888 9.3342 2.41519 9.29882 2.30834 9.23175C2.20148 9.16468 2.11586 9.06867 2.0614 8.95487C2.00694 8.84107 1.9859 8.71416 2.0007 8.58887C2.0155 8.46359 2.06555 8.34507 2.14503 8.2471L8.74503 1.4471C8.79454 1.38996 8.86201 1.35134 8.93636 1.33759C9.0107 1.32384 9.08752 1.33578 9.15419 1.37144C9.22086 1.4071 9.27342 1.46437 9.30326 1.53384C9.33309 1.60331 9.33842 1.68087 9.31837 1.75377L8.03837 5.7671C8.00062 5.86812 7.98795 5.97678 8.00143 6.08377C8.01491 6.19076 8.05414 6.29289 8.11576 6.38139C8.17738 6.46988 8.25955 6.54211 8.35522 6.59187C8.45089 6.64164 8.5572 6.66745 8.66503 6.6671H13.3317C13.4579 6.66667 13.5815 6.70205 13.6884 6.76912C13.7952 6.83619 13.8809 6.9322 13.9353 7.046C13.9898 7.1598 14.0108 7.28671 13.996 7.412C13.9812 7.53728 13.9312 7.6558 13.8517 7.75377L7.2517 14.5538C7.20219 14.6109 7.13473 14.6495 7.06038 14.6633C6.98603 14.677 6.90922 14.6651 6.84255 14.6294C6.77588 14.5938 6.72331 14.5365 6.69348 14.467C6.66364 14.3976 6.65832 14.32 6.67837 14.2471L7.95837 10.2338C7.99611 10.1328 8.00879 10.0241 7.99531 9.9171C7.98183 9.81011 7.94259 9.70798 7.88097 9.61948C7.81935 9.53099 7.73719 9.45876 7.64152 9.40899C7.54585 9.35923 7.43954 9.33342 7.3317 9.33377H2.66503Z" stroke="#94A3B8" stroke-width="1.33333" stroke-linecap="round" stroke-linejoin="round"/>
</svg>
