<svg preserveAspectRatio="none" overflow="visible" style="display: block;" width="12.984" height="12.984" viewBox="0 0 12.984 12.984" fill="none" xmlns="http://www.w3.org/2000/svg">
<g id="Icon">
<path id="Vector" d="M8.115 11.361V7.033C8.115 6.88952 8.058 6.75191 7.95654 6.65046C7.85509 6.549 7.71748 6.492 7.574 6.492H5.41C5.26652 6.492 5.12891 6.549 5.02746 6.65046C4.926 6.75191 4.869 6.88952 4.869 7.033V11.361" stroke="#0066FF" stroke-width="1.082" stroke-linecap="round" stroke-linejoin="round"/>
<path id="Vector_2" d="M1.623 5.41C1.62296 5.25261 1.65726 5.0971 1.72351 4.95432C1.78976 4.81155 1.88636 4.68495 2.00657 4.58335L5.79357 1.33789C5.98886 1.17284 6.2363 1.08228 6.492 1.08228C6.7477 1.08228 6.99514 1.17284 7.19043 1.33789L10.9774 4.58335C11.0976 4.68495 11.1942 4.81155 11.2605 4.95432C11.3267 5.0971 11.361 5.25261 11.361 5.41V10.279C11.361 10.566 11.247 10.8412 11.0441 11.0441C10.8412 11.247 10.566 11.361 10.279 11.361H2.705C2.41804 11.361 2.14282 11.247 1.93991 11.0441C1.737 10.8412 1.623 10.566 1.623 10.279V5.41Z" stroke="#0066FF" stroke-width="1.082" stroke-linecap="round" stroke-linejoin="round"/>
</g>
</svg>
