<svg preserveAspectRatio="none" overflow="visible" style="display: block;" width="15.9985" height="15.9985" viewBox="0 0 15.9985 15.9985" fill="none" xmlns="http://www.w3.org/2000/svg">
<g id="Icon">
<path id="Vector" d="M5.99944 1.99981H2.66642C2.29826 1.99981 1.99981 2.29826 1.99981 2.66642V7.33265C1.99981 7.7008 2.29826 7.99925 2.66642 7.99925H5.99944C6.36759 7.99925 6.66604 7.7008 6.66604 7.33265V2.66642C6.66604 2.29826 6.36759 1.99981 5.99944 1.99981Z" stroke="#0066FF" stroke-width="1.33321" stroke-linecap="round" stroke-linejoin="round"/>
<path id="Vector_2" d="M13.3321 1.99981H9.99906C9.63091 1.99981 9.33246 2.29826 9.33246 2.66642V4.66623C9.33246 5.03438 9.63091 5.33283 9.99906 5.33283H13.3321C13.7002 5.33283 13.9987 5.03438 13.9987 4.66623V2.66642C13.9987 2.29826 13.7002 1.99981 13.3321 1.99981Z" stroke="#0066FF" stroke-width="1.33321" stroke-linecap="round" stroke-linejoin="round"/>
<path id="Vector_3" d="M13.3321 7.99925H9.99906C9.63091 7.99925 9.33246 8.2977 9.33246 8.66585V13.3321C9.33246 13.7002 9.63091 13.9987 9.99906 13.9987H13.3321C13.7002 13.9987 13.9987 13.7002 13.9987 13.3321V8.66585C13.9987 8.2977 13.7002 7.99925 13.3321 7.99925Z" stroke="#0066FF" stroke-width="1.33321" stroke-linecap="round" stroke-linejoin="round"/>
<path id="Vector_4" d="M5.99944 10.6657H2.66642C2.29826 10.6657 1.99981 10.9641 1.99981 11.3323V13.3321C1.99981 13.7002 2.29826 13.9987 2.66642 13.9987H5.99944C6.36759 13.9987 6.66604 13.7002 6.66604 13.3321V11.3323C6.66604 10.9641 6.36759 10.6657 5.99944 10.6657Z" stroke="#0066FF" stroke-width="1.33321" stroke-linecap="round" stroke-linejoin="round"/>
</g>
</svg>
