<svg preserveAspectRatio="none" overflow="visible" style="display: block;" width="15.9985" height="15.9985" viewBox="0 0 15.9985 15.9985" fill="none" xmlns="http://www.w3.org/2000/svg">
<g id="Icon" clip-path="url(#clip0_0_30)">
<path id="Vector" d="M2.56643 5.74613C2.46913 5.30785 2.48407 4.85211 2.60986 4.42114C2.73565 3.99018 2.96822 3.59796 3.286 3.28084C3.60379 2.96372 3.9965 2.73197 4.42772 2.60709C4.85895 2.4822 5.31472 2.46821 5.75279 2.56643C5.99391 2.18933 6.32608 1.879 6.71867 1.66403C7.11127 1.44907 7.55166 1.3364 7.99925 1.3364C8.44684 1.3364 8.88723 1.44907 9.27983 1.66403C9.67242 1.879 10.0046 2.18933 10.2457 2.56643C10.6844 2.46778 11.141 2.48171 11.5729 2.6069C12.0048 2.73209 12.3981 2.96448 12.716 3.28246C13.034 3.60044 13.2664 3.99367 13.3916 4.42559C13.5168 4.8575 13.5307 5.31406 13.4321 5.75279C13.8092 5.99391 14.1195 6.32608 14.3345 6.71867C14.5494 7.11127 14.6621 7.55166 14.6621 7.99925C14.6621 8.44684 14.5494 8.88723 14.3345 9.27983C14.1195 9.67242 13.8092 10.0046 13.4321 10.2457C13.5303 10.6838 13.5163 11.1396 13.3914 11.5708C13.2665 12.002 13.0348 12.3947 12.7177 12.7125C12.4005 13.0303 12.0083 13.2628 11.5774 13.3886C11.1464 13.5144 10.6906 13.5294 10.2524 13.4321C10.0116 13.8106 9.67914 14.1223 9.28588 14.3382C8.89261 14.5541 8.45123 14.6673 8.00258 14.6673C7.55394 14.6673 7.11255 14.5541 6.71929 14.3382C6.32602 14.1223 5.9936 13.8106 5.75279 13.4321C5.31472 13.5303 4.85895 13.5163 4.42772 13.3914C3.9965 13.2665 3.60379 13.0348 3.286 12.7177C2.96822 12.4005 2.73565 12.0083 2.60986 11.5774C2.48407 11.1464 2.46913 10.6906 2.56643 10.2524C2.18643 10.0119 1.87343 9.67921 1.65654 9.28527C1.43965 8.89134 1.32592 8.44895 1.32592 7.99925C1.32592 7.54955 1.43965 7.10716 1.65654 6.71323C1.87343 6.31929 2.18643 5.98661 2.56643 5.74613Z" stroke="#0066FF" stroke-width="1.33321" stroke-linecap="round" stroke-linejoin="round"/>
<path id="Vector_2" d="M5.99944 7.99925L7.33265 9.33246L9.99906 6.66604" stroke="#0066FF" stroke-width="1.33321" stroke-linecap="round" stroke-linejoin="round"/>
</g>
<defs>
<clipPath id="clip0_0_30">
<rect width="15.9985" height="15.9985" fill="white"/>
</clipPath>
</defs>
</svg>
