<svg preserveAspectRatio="none" overflow="visible" style="display: block;" width="15.9985" height="15.9985" viewBox="0 0 15.9985 15.9985" fill="none" xmlns="http://www.w3.org/2000/svg">
<g id="Icon" clip-path="url(#clip0_0_24)">
<path id="Vector" d="M12.6655 4.66623V2.66642C12.6655 2.48962 12.5952 2.32007 12.4702 2.19506C12.3452 2.07004 12.1757 1.99981 11.9989 1.99981H3.33302C2.97943 1.99981 2.64033 2.14028 2.3903 2.3903C2.14028 2.64033 1.99981 2.97943 1.99981 3.33302C1.99981 3.68661 2.14028 4.02572 2.3903 4.27574C2.64033 4.52577 2.97943 4.66623 3.33302 4.66623H13.3321C13.5089 4.66623 13.6784 4.73646 13.8034 4.86147C13.9285 4.98649 13.9987 5.15604 13.9987 5.33283V7.99925M13.9987 7.99925H11.9989C11.6453 7.99925 11.3062 8.13971 11.0562 8.38974C10.8061 8.63976 10.6657 8.97887 10.6657 9.33246C10.6657 9.68605 10.8061 10.0252 11.0562 10.2752C11.3062 10.5252 11.6453 10.6657 11.9989 10.6657H13.9987C14.1755 10.6657 14.345 10.5954 14.47 10.4704C14.5951 10.3454 14.6653 10.1759 14.6653 9.99906V8.66585C14.6653 8.48906 14.5951 8.31951 14.47 8.19449C14.345 8.06948 14.1755 7.99925 13.9987 7.99925Z" stroke="#94A3B8" stroke-width="1.33321" stroke-linecap="round" stroke-linejoin="round"/>
<path id="Vector_2" d="M1.99981 3.33302V12.6655C1.99981 13.0191 2.14028 13.3582 2.3903 13.6082C2.64033 13.8582 2.97943 13.9987 3.33302 13.9987H13.3321C13.5089 13.9987 13.6784 13.9285 13.8034 13.8034C13.9285 13.6784 13.9987 13.5089 13.9987 13.3321V10.6657" stroke="#94A3B8" stroke-width="1.33321" stroke-linecap="round" stroke-linejoin="round"/>
</g>
<defs>
<clipPath id="clip0_0_24">
<rect width="15.9985" height="15.9985" fill="white"/>
</clipPath>
</defs>
</svg>
